<svg id="Layer_1" viewBox="0 0 24 24" xmlns="http://www.w3.org/2000/svg" data-name="Layer 1"><path d="m24 7.5v9c0 2.481-2.019 4.5-4.5 4.5h-15c-2.481 0-4.5-2.019-4.5-4.5 0-.276.224-.5.5-.5s.5.224.5.5c0 1.93 1.57 3.5 3.5 3.5h15c1.93 0 3.5-1.57 3.5-3.5v-9c0-1.93-1.57-3.5-3.5-3.5h-15c-1.93 0-3.5 1.57-3.5 3.5 0 .276-.224.5-.5.5s-.5-.224-.5-.5c0-2.481 2.019-4.5 4.5-4.5h15c2.481 0 4.5 2.019 4.5 4.5zm-24 4.5c0-1.103.897-2 2-2s2 .897 2 2-.897 2-2 2-2-.897-2-2zm1 0c0 .551.449 1 1 1s1-.449 1-1-.449-1-1-1-1 .449-1 1zm7.669.696.809 2.658c.08.264-.069.543-.333.624-.257.08-.544-.066-.624-.333l-.812-2.667c-.07.006-.138.021-.21.021h-1.5v2.5c0 .276-.224.5-.5.5s-.5-.224-.5-.5v-6c0-.827.673-1.5 1.5-1.5h1c1.378 0 2.5 1.122 2.5 2.5 0 .954-.543 1.775-1.331 2.196zm.331-2.196c0-.827-.673-1.5-1.5-1.5h-1c-.276 0-.5.224-.5.5v2.5h1.5c.827 0 1.5-.673 1.5-1.5zm3.5-1.5h2c.276 0 .5-.224.5-.5s-.224-.5-.5-.5h-2c-.827 0-1.5.673-1.5 1.5v5c0 .827.673 1.5 1.5 1.5h2c.276 0 .5-.224.5-.5s-.224-.5-.5-.5h-2c-.276 0-.5-.225-.5-.5v-2h2.5c.276 0 .5-.224.5-.5s-.224-.5-.5-.5h-2.5v-2c0-.276.224-.5.5-.5zm6 0c.685 0 1.282.462 1.453 1.125.069.268.347.431.609.36.268-.069.429-.342.36-.609-.285-1.104-1.28-1.875-2.421-1.875-1.378 0-2.5 1.122-2.5 2.5v3c0 1.379 1.122 2.5 2.5 2.5 1.141 0 2.137-.771 2.421-1.875.069-.268-.092-.54-.36-.609-.263-.067-.54.092-.609.359-.17.662-.768 1.125-1.453 1.125-.827 0-1.5-.673-1.5-1.5v-3c0-.827.673-1.5 1.5-1.5z"/></svg>